@startuml
hide empty description
skinparam shadowing false
skinparam state {
  ArrowColor blue
  BorderColor blue
  EndColor black
  StartColor green
  BackGroundColor<< step >> white
  BorderColor<< step >> black
  BackGroundColor<< delegate >> lightgrey
  BackGroundColor<< set_state >> white
  BackGroundColor<< call_operation >> lightblue
  BackGroundColor<< inline >> white
}
skinparam ActivityBarColor<<fork>> DarkGreen
skinparam ActivityBarColor<<join>> DarkOrange

state "stop_extCp_mgmt" as step_parallel_undeploy_stop_extCp_mgmt << step >> {
  state "extCp_mgmt stopping" as step_parallel_undeploy_stop_extCp_mgmt_extCp_mgmt_stopping << set_state >>
  state "extCp_mgmt Standard.stop" as step_parallel_undeploy_stop_extCp_mgmt_extCp_mgmt_Standard.stop << call_operation >>
  state "extCp_mgmt stopped" as step_parallel_undeploy_stop_extCp_mgmt_extCp_mgmt_stopped << set_state >>
  step_parallel_undeploy_stop_extCp_mgmt_extCp_mgmt_stopping --> step_parallel_undeploy_stop_extCp_mgmt_extCp_mgmt_Standard.stop
  step_parallel_undeploy_stop_extCp_mgmt_extCp_mgmt_Standard.stop --> step_parallel_undeploy_stop_extCp_mgmt_extCp_mgmt_stopped
}
state "delete_extCp_mgmt" as step_parallel_undeploy_delete_extCp_mgmt << step >> {
  state "extCp_mgmt deleting" as step_parallel_undeploy_delete_extCp_mgmt_extCp_mgmt_deleting << set_state >>
  state "extCp_mgmt Standard.delete" as step_parallel_undeploy_delete_extCp_mgmt_extCp_mgmt_Standard.delete << call_operation >>
  state "extCp_mgmt initial" as step_parallel_undeploy_delete_extCp_mgmt_extCp_mgmt_initial << set_state >>
  step_parallel_undeploy_delete_extCp_mgmt_extCp_mgmt_deleting --> step_parallel_undeploy_delete_extCp_mgmt_extCp_mgmt_Standard.delete
  step_parallel_undeploy_delete_extCp_mgmt_extCp_mgmt_Standard.delete --> step_parallel_undeploy_delete_extCp_mgmt_extCp_mgmt_initial
}
state "stop_intVL_mgmt" as step_parallel_undeploy_stop_intVL_mgmt << step >> {
  state "intVL_mgmt stopping" as step_parallel_undeploy_stop_intVL_mgmt_intVL_mgmt_stopping << set_state >>
  state "intVL_mgmt Standard.stop" as step_parallel_undeploy_stop_intVL_mgmt_intVL_mgmt_Standard.stop << call_operation >>
  state "intVL_mgmt stopped" as step_parallel_undeploy_stop_intVL_mgmt_intVL_mgmt_stopped << set_state >>
  step_parallel_undeploy_stop_intVL_mgmt_intVL_mgmt_stopping --> step_parallel_undeploy_stop_intVL_mgmt_intVL_mgmt_Standard.stop
  step_parallel_undeploy_stop_intVL_mgmt_intVL_mgmt_Standard.stop --> step_parallel_undeploy_stop_intVL_mgmt_intVL_mgmt_stopped
}
state "delete_intVL_mgmt" as step_parallel_undeploy_delete_intVL_mgmt << step >> {
  state "intVL_mgmt deleting" as step_parallel_undeploy_delete_intVL_mgmt_intVL_mgmt_deleting << set_state >>
  state "intVL_mgmt Standard.delete" as step_parallel_undeploy_delete_intVL_mgmt_intVL_mgmt_Standard.delete << call_operation >>
  state "intVL_mgmt initial" as step_parallel_undeploy_delete_intVL_mgmt_intVL_mgmt_initial << set_state >>
  step_parallel_undeploy_delete_intVL_mgmt_intVL_mgmt_deleting --> step_parallel_undeploy_delete_intVL_mgmt_intVL_mgmt_Standard.delete
  step_parallel_undeploy_delete_intVL_mgmt_intVL_mgmt_Standard.delete --> step_parallel_undeploy_delete_intVL_mgmt_intVL_mgmt_initial
}
state "stop_intVL_data" as step_parallel_undeploy_stop_intVL_data << step >> {
  state "intVL_data stopping" as step_parallel_undeploy_stop_intVL_data_intVL_data_stopping << set_state >>
  state "intVL_data Standard.stop" as step_parallel_undeploy_stop_intVL_data_intVL_data_Standard.stop << call_operation >>
  state "intVL_data stopped" as step_parallel_undeploy_stop_intVL_data_intVL_data_stopped << set_state >>
  step_parallel_undeploy_stop_intVL_data_intVL_data_stopping --> step_parallel_undeploy_stop_intVL_data_intVL_data_Standard.stop
  step_parallel_undeploy_stop_intVL_data_intVL_data_Standard.stop --> step_parallel_undeploy_stop_intVL_data_intVL_data_stopped
}
state "delete_intVL_data" as step_parallel_undeploy_delete_intVL_data << step >> {
  state "intVL_data deleting" as step_parallel_undeploy_delete_intVL_data_intVL_data_deleting << set_state >>
  state "intVL_data Standard.delete" as step_parallel_undeploy_delete_intVL_data_intVL_data_Standard.delete << call_operation >>
  state "intVL_data initial" as step_parallel_undeploy_delete_intVL_data_intVL_data_initial << set_state >>
  step_parallel_undeploy_delete_intVL_data_intVL_data_deleting --> step_parallel_undeploy_delete_intVL_data_intVL_data_Standard.delete
  step_parallel_undeploy_delete_intVL_data_intVL_data_Standard.delete --> step_parallel_undeploy_delete_intVL_data_intVL_data_initial
}
state "stop_vdu_firewall_main" as step_parallel_undeploy_stop_vdu_firewall_main << step >> {
  state "vdu_firewall_main stopping" as step_parallel_undeploy_stop_vdu_firewall_main_vdu_firewall_main_stopping << set_state >>
  state "vdu_firewall_main Standard.stop" as step_parallel_undeploy_stop_vdu_firewall_main_vdu_firewall_main_Standard.stop << call_operation >>
  state "vdu_firewall_main stopped" as step_parallel_undeploy_stop_vdu_firewall_main_vdu_firewall_main_stopped << set_state >>
  step_parallel_undeploy_stop_vdu_firewall_main_vdu_firewall_main_stopping --> step_parallel_undeploy_stop_vdu_firewall_main_vdu_firewall_main_Standard.stop
  step_parallel_undeploy_stop_vdu_firewall_main_vdu_firewall_main_Standard.stop --> step_parallel_undeploy_stop_vdu_firewall_main_vdu_firewall_main_stopped
}
state "delete_vdu_firewall_main" as step_parallel_undeploy_delete_vdu_firewall_main << step >> {
  state "vdu_firewall_main deleting" as step_parallel_undeploy_delete_vdu_firewall_main_vdu_firewall_main_deleting << set_state >>
  state "vdu_firewall_main Standard.delete" as step_parallel_undeploy_delete_vdu_firewall_main_vdu_firewall_main_Standard.delete << call_operation >>
  state "vdu_firewall_main initial" as step_parallel_undeploy_delete_vdu_firewall_main_vdu_firewall_main_initial << set_state >>
  step_parallel_undeploy_delete_vdu_firewall_main_vdu_firewall_main_deleting --> step_parallel_undeploy_delete_vdu_firewall_main_vdu_firewall_main_Standard.delete
  step_parallel_undeploy_delete_vdu_firewall_main_vdu_firewall_main_Standard.delete --> step_parallel_undeploy_delete_vdu_firewall_main_vdu_firewall_main_initial
}
state "stop_vdu_firewall_mgmt" as step_parallel_undeploy_stop_vdu_firewall_mgmt << step >> {
  state "vdu_firewall_mgmt stopping" as step_parallel_undeploy_stop_vdu_firewall_mgmt_vdu_firewall_mgmt_stopping << set_state >>
  state "vdu_firewall_mgmt Standard.stop" as step_parallel_undeploy_stop_vdu_firewall_mgmt_vdu_firewall_mgmt_Standard.stop << call_operation >>
  state "vdu_firewall_mgmt stopped" as step_parallel_undeploy_stop_vdu_firewall_mgmt_vdu_firewall_mgmt_stopped << set_state >>
  step_parallel_undeploy_stop_vdu_firewall_mgmt_vdu_firewall_mgmt_stopping --> step_parallel_undeploy_stop_vdu_firewall_mgmt_vdu_firewall_mgmt_Standard.stop
  step_parallel_undeploy_stop_vdu_firewall_mgmt_vdu_firewall_mgmt_Standard.stop --> step_parallel_undeploy_stop_vdu_firewall_mgmt_vdu_firewall_mgmt_stopped
}
state "delete_vdu_firewall_mgmt" as step_parallel_undeploy_delete_vdu_firewall_mgmt << step >> {
  state "vdu_firewall_mgmt deleting" as step_parallel_undeploy_delete_vdu_firewall_mgmt_vdu_firewall_mgmt_deleting << set_state >>
  state "vdu_firewall_mgmt Standard.delete" as step_parallel_undeploy_delete_vdu_firewall_mgmt_vdu_firewall_mgmt_Standard.delete << call_operation >>
  state "vdu_firewall_mgmt initial" as step_parallel_undeploy_delete_vdu_firewall_mgmt_vdu_firewall_mgmt_initial << set_state >>
  step_parallel_undeploy_delete_vdu_firewall_mgmt_vdu_firewall_mgmt_deleting --> step_parallel_undeploy_delete_vdu_firewall_mgmt_vdu_firewall_mgmt_Standard.delete
  step_parallel_undeploy_delete_vdu_firewall_mgmt_vdu_firewall_mgmt_Standard.delete --> step_parallel_undeploy_delete_vdu_firewall_mgmt_vdu_firewall_mgmt_initial
}
state "stop_cp_firewall_main_mgmt" as step_parallel_undeploy_stop_cp_firewall_main_mgmt << step >> {
  state "cp_firewall_main_mgmt stopping" as step_parallel_undeploy_stop_cp_firewall_main_mgmt_cp_firewall_main_mgmt_stopping << set_state >>
  state "cp_firewall_main_mgmt Standard.stop" as step_parallel_undeploy_stop_cp_firewall_main_mgmt_cp_firewall_main_mgmt_Standard.stop << call_operation >>
  state "cp_firewall_main_mgmt stopped" as step_parallel_undeploy_stop_cp_firewall_main_mgmt_cp_firewall_main_mgmt_stopped << set_state >>
  step_parallel_undeploy_stop_cp_firewall_main_mgmt_cp_firewall_main_mgmt_stopping --> step_parallel_undeploy_stop_cp_firewall_main_mgmt_cp_firewall_main_mgmt_Standard.stop
  step_parallel_undeploy_stop_cp_firewall_main_mgmt_cp_firewall_main_mgmt_Standard.stop --> step_parallel_undeploy_stop_cp_firewall_main_mgmt_cp_firewall_main_mgmt_stopped
}
state "delete_cp_firewall_main_mgmt" as step_parallel_undeploy_delete_cp_firewall_main_mgmt << step >> {
  state "cp_firewall_main_mgmt deleting" as step_parallel_undeploy_delete_cp_firewall_main_mgmt_cp_firewall_main_mgmt_deleting << set_state >>
  state "cp_firewall_main_mgmt Standard.delete" as step_parallel_undeploy_delete_cp_firewall_main_mgmt_cp_firewall_main_mgmt_Standard.delete << call_operation >>
  state "cp_firewall_main_mgmt initial" as step_parallel_undeploy_delete_cp_firewall_main_mgmt_cp_firewall_main_mgmt_initial << set_state >>
  step_parallel_undeploy_delete_cp_firewall_main_mgmt_cp_firewall_main_mgmt_deleting --> step_parallel_undeploy_delete_cp_firewall_main_mgmt_cp_firewall_main_mgmt_Standard.delete
  step_parallel_undeploy_delete_cp_firewall_main_mgmt_cp_firewall_main_mgmt_Standard.delete --> step_parallel_undeploy_delete_cp_firewall_main_mgmt_cp_firewall_main_mgmt_initial
}
state "stop_cp_firewall_main_data" as step_parallel_undeploy_stop_cp_firewall_main_data << step >> {
  state "cp_firewall_main_data stopping" as step_parallel_undeploy_stop_cp_firewall_main_data_cp_firewall_main_data_stopping << set_state >>
  state "cp_firewall_main_data Standard.stop" as step_parallel_undeploy_stop_cp_firewall_main_data_cp_firewall_main_data_Standard.stop << call_operation >>
  state "cp_firewall_main_data stopped" as step_parallel_undeploy_stop_cp_firewall_main_data_cp_firewall_main_data_stopped << set_state >>
  step_parallel_undeploy_stop_cp_firewall_main_data_cp_firewall_main_data_stopping --> step_parallel_undeploy_stop_cp_firewall_main_data_cp_firewall_main_data_Standard.stop
  step_parallel_undeploy_stop_cp_firewall_main_data_cp_firewall_main_data_Standard.stop --> step_parallel_undeploy_stop_cp_firewall_main_data_cp_firewall_main_data_stopped
}
state "delete_cp_firewall_main_data" as step_parallel_undeploy_delete_cp_firewall_main_data << step >> {
  state "cp_firewall_main_data deleting" as step_parallel_undeploy_delete_cp_firewall_main_data_cp_firewall_main_data_deleting << set_state >>
  state "cp_firewall_main_data Standard.delete" as step_parallel_undeploy_delete_cp_firewall_main_data_cp_firewall_main_data_Standard.delete << call_operation >>
  state "cp_firewall_main_data initial" as step_parallel_undeploy_delete_cp_firewall_main_data_cp_firewall_main_data_initial << set_state >>
  step_parallel_undeploy_delete_cp_firewall_main_data_cp_firewall_main_data_deleting --> step_parallel_undeploy_delete_cp_firewall_main_data_cp_firewall_main_data_Standard.delete
  step_parallel_undeploy_delete_cp_firewall_main_data_cp_firewall_main_data_Standard.delete --> step_parallel_undeploy_delete_cp_firewall_main_data_cp_firewall_main_data_initial
}
state "stop_cp_firewall_mgmt_mgmt" as step_parallel_undeploy_stop_cp_firewall_mgmt_mgmt << step >> {
  state "cp_firewall_mgmt_mgmt stopping" as step_parallel_undeploy_stop_cp_firewall_mgmt_mgmt_cp_firewall_mgmt_mgmt_stopping << set_state >>
  state "cp_firewall_mgmt_mgmt Standard.stop" as step_parallel_undeploy_stop_cp_firewall_mgmt_mgmt_cp_firewall_mgmt_mgmt_Standard.stop << call_operation >>
  state "cp_firewall_mgmt_mgmt stopped" as step_parallel_undeploy_stop_cp_firewall_mgmt_mgmt_cp_firewall_mgmt_mgmt_stopped << set_state >>
  step_parallel_undeploy_stop_cp_firewall_mgmt_mgmt_cp_firewall_mgmt_mgmt_stopping --> step_parallel_undeploy_stop_cp_firewall_mgmt_mgmt_cp_firewall_mgmt_mgmt_Standard.stop
  step_parallel_undeploy_stop_cp_firewall_mgmt_mgmt_cp_firewall_mgmt_mgmt_Standard.stop --> step_parallel_undeploy_stop_cp_firewall_mgmt_mgmt_cp_firewall_mgmt_mgmt_stopped
}
state "delete_cp_firewall_mgmt_mgmt" as step_parallel_undeploy_delete_cp_firewall_mgmt_mgmt << step >> {
  state "cp_firewall_mgmt_mgmt deleting" as step_parallel_undeploy_delete_cp_firewall_mgmt_mgmt_cp_firewall_mgmt_mgmt_deleting << set_state >>
  state "cp_firewall_mgmt_mgmt Standard.delete" as step_parallel_undeploy_delete_cp_firewall_mgmt_mgmt_cp_firewall_mgmt_mgmt_Standard.delete << call_operation >>
  state "cp_firewall_mgmt_mgmt initial" as step_parallel_undeploy_delete_cp_firewall_mgmt_mgmt_cp_firewall_mgmt_mgmt_initial << set_state >>
  step_parallel_undeploy_delete_cp_firewall_mgmt_mgmt_cp_firewall_mgmt_mgmt_deleting --> step_parallel_undeploy_delete_cp_firewall_mgmt_mgmt_cp_firewall_mgmt_mgmt_Standard.delete
  step_parallel_undeploy_delete_cp_firewall_mgmt_mgmt_cp_firewall_mgmt_mgmt_Standard.delete --> step_parallel_undeploy_delete_cp_firewall_mgmt_mgmt_cp_firewall_mgmt_mgmt_initial
}
state "stop_cp_firewall_mgmt_data" as step_parallel_undeploy_stop_cp_firewall_mgmt_data << step >> {
  state "cp_firewall_mgmt_data stopping" as step_parallel_undeploy_stop_cp_firewall_mgmt_data_cp_firewall_mgmt_data_stopping << set_state >>
  state "cp_firewall_mgmt_data Standard.stop" as step_parallel_undeploy_stop_cp_firewall_mgmt_data_cp_firewall_mgmt_data_Standard.stop << call_operation >>
  state "cp_firewall_mgmt_data stopped" as step_parallel_undeploy_stop_cp_firewall_mgmt_data_cp_firewall_mgmt_data_stopped << set_state >>
  step_parallel_undeploy_stop_cp_firewall_mgmt_data_cp_firewall_mgmt_data_stopping --> step_parallel_undeploy_stop_cp_firewall_mgmt_data_cp_firewall_mgmt_data_Standard.stop
  step_parallel_undeploy_stop_cp_firewall_mgmt_data_cp_firewall_mgmt_data_Standard.stop --> step_parallel_undeploy_stop_cp_firewall_mgmt_data_cp_firewall_mgmt_data_stopped
}
state "delete_cp_firewall_mgmt_data" as step_parallel_undeploy_delete_cp_firewall_mgmt_data << step >> {
  state "cp_firewall_mgmt_data deleting" as step_parallel_undeploy_delete_cp_firewall_mgmt_data_cp_firewall_mgmt_data_deleting << set_state >>
  state "cp_firewall_mgmt_data Standard.delete" as step_parallel_undeploy_delete_cp_firewall_mgmt_data_cp_firewall_mgmt_data_Standard.delete << call_operation >>
  state "cp_firewall_mgmt_data initial" as step_parallel_undeploy_delete_cp_firewall_mgmt_data_cp_firewall_mgmt_data_initial << set_state >>
  step_parallel_undeploy_delete_cp_firewall_mgmt_data_cp_firewall_mgmt_data_deleting --> step_parallel_undeploy_delete_cp_firewall_mgmt_data_cp_firewall_mgmt_data_Standard.delete
  step_parallel_undeploy_delete_cp_firewall_mgmt_data_cp_firewall_mgmt_data_Standard.delete --> step_parallel_undeploy_delete_cp_firewall_mgmt_data_cp_firewall_mgmt_data_initial
}
  state step_parallel_undeploy_stop_intVL_mgmt_join <<join>>
  step_parallel_undeploy_stop_intVL_mgmt_join --> step_parallel_undeploy_stop_intVL_mgmt
  state step_parallel_undeploy_stop_intVL_data_join <<join>>
  step_parallel_undeploy_stop_intVL_data_join --> step_parallel_undeploy_stop_intVL_data
  state step_parallel_undeploy_stop_vdu_firewall_main_join <<join>>
  step_parallel_undeploy_stop_vdu_firewall_main_join --> step_parallel_undeploy_stop_vdu_firewall_main
  state step_parallel_undeploy_stop_vdu_firewall_mgmt_join <<join>>
  step_parallel_undeploy_stop_vdu_firewall_mgmt_join --> step_parallel_undeploy_stop_vdu_firewall_mgmt
step_parallel_undeploy_stop_extCp_mgmt --> step_parallel_undeploy_delete_extCp_mgmt
step_parallel_undeploy_stop_intVL_mgmt --> step_parallel_undeploy_delete_intVL_mgmt
step_parallel_undeploy_stop_intVL_data --> step_parallel_undeploy_delete_intVL_data
step_parallel_undeploy_stop_vdu_firewall_main --> step_parallel_undeploy_delete_vdu_firewall_main
step_parallel_undeploy_stop_vdu_firewall_mgmt --> step_parallel_undeploy_delete_vdu_firewall_mgmt
step_parallel_undeploy_stop_cp_firewall_main_mgmt --> step_parallel_undeploy_delete_cp_firewall_main_mgmt
state step_parallel_undeploy_delete_cp_firewall_main_mgmt_fork <<fork>>
step_parallel_undeploy_delete_cp_firewall_main_mgmt --> step_parallel_undeploy_delete_cp_firewall_main_mgmt_fork
step_parallel_undeploy_delete_cp_firewall_main_mgmt_fork --> step_parallel_undeploy_stop_vdu_firewall_main_join
step_parallel_undeploy_delete_cp_firewall_main_mgmt_fork --> step_parallel_undeploy_stop_intVL_mgmt_join
step_parallel_undeploy_stop_cp_firewall_main_data --> step_parallel_undeploy_delete_cp_firewall_main_data
state step_parallel_undeploy_delete_cp_firewall_main_data_fork <<fork>>
step_parallel_undeploy_delete_cp_firewall_main_data --> step_parallel_undeploy_delete_cp_firewall_main_data_fork
step_parallel_undeploy_delete_cp_firewall_main_data_fork --> step_parallel_undeploy_stop_vdu_firewall_main_join
step_parallel_undeploy_delete_cp_firewall_main_data_fork --> step_parallel_undeploy_stop_intVL_data_join
step_parallel_undeploy_stop_cp_firewall_mgmt_mgmt --> step_parallel_undeploy_delete_cp_firewall_mgmt_mgmt
state step_parallel_undeploy_delete_cp_firewall_mgmt_mgmt_fork <<fork>>
step_parallel_undeploy_delete_cp_firewall_mgmt_mgmt --> step_parallel_undeploy_delete_cp_firewall_mgmt_mgmt_fork
step_parallel_undeploy_delete_cp_firewall_mgmt_mgmt_fork --> step_parallel_undeploy_stop_vdu_firewall_mgmt_join
step_parallel_undeploy_delete_cp_firewall_mgmt_mgmt_fork --> step_parallel_undeploy_stop_intVL_mgmt_join
step_parallel_undeploy_stop_cp_firewall_mgmt_data --> step_parallel_undeploy_delete_cp_firewall_mgmt_data
state step_parallel_undeploy_delete_cp_firewall_mgmt_data_fork <<fork>>
step_parallel_undeploy_delete_cp_firewall_mgmt_data --> step_parallel_undeploy_delete_cp_firewall_mgmt_data_fork
step_parallel_undeploy_delete_cp_firewall_mgmt_data_fork --> step_parallel_undeploy_stop_vdu_firewall_mgmt_join
step_parallel_undeploy_delete_cp_firewall_mgmt_data_fork --> step_parallel_undeploy_stop_intVL_data_join
state parallel_undeploy_fork <<fork>>
[*] --> parallel_undeploy_fork
parallel_undeploy_fork --> step_parallel_undeploy_stop_extCp_mgmt
parallel_undeploy_fork --> step_parallel_undeploy_stop_cp_firewall_main_mgmt
parallel_undeploy_fork --> step_parallel_undeploy_stop_cp_firewall_main_data
parallel_undeploy_fork --> step_parallel_undeploy_stop_cp_firewall_mgmt_mgmt
parallel_undeploy_fork --> step_parallel_undeploy_stop_cp_firewall_mgmt_data
state parallel_undeploy_join <<join>>
parallel_undeploy_join --> [*]
step_parallel_undeploy_delete_extCp_mgmt --> parallel_undeploy_join
step_parallel_undeploy_delete_intVL_mgmt --> parallel_undeploy_join
step_parallel_undeploy_delete_intVL_data --> parallel_undeploy_join
step_parallel_undeploy_delete_vdu_firewall_main --> parallel_undeploy_join
step_parallel_undeploy_delete_vdu_firewall_mgmt --> parallel_undeploy_join
@enduml
