@startuml
hide empty description
skinparam shadowing false
skinparam state {
  ArrowColor blue
  BorderColor blue
  EndColor black
  StartColor green
  BackGroundColor<< step >> white
  BorderColor<< step >> black
  BackGroundColor<< delegate >> lightgrey
  BackGroundColor<< set_state >> white
  BackGroundColor<< call_operation >> lightblue
  BackGroundColor<< inline >> white
}
skinparam ActivityBarColor<<fork>> DarkGreen
skinparam ActivityBarColor<<join>> DarkOrange

state "stop_extCp_mgmt" as step_parallel_undeploy_stop_extCp_mgmt << step >> {
  state "extCp_mgmt stopping" as step_parallel_undeploy_stop_extCp_mgmt_extCp_mgmt_stopping << set_state >>
  state "extCp_mgmt Standard.stop" as step_parallel_undeploy_stop_extCp_mgmt_extCp_mgmt_Standard.stop << call_operation >>
  state "extCp_mgmt stopped" as step_parallel_undeploy_stop_extCp_mgmt_extCp_mgmt_stopped << set_state >>
  step_parallel_undeploy_stop_extCp_mgmt_extCp_mgmt_stopping --> step_parallel_undeploy_stop_extCp_mgmt_extCp_mgmt_Standard.stop
  step_parallel_undeploy_stop_extCp_mgmt_extCp_mgmt_Standard.stop --> step_parallel_undeploy_stop_extCp_mgmt_extCp_mgmt_stopped
}
state "delete_extCp_mgmt" as step_parallel_undeploy_delete_extCp_mgmt << step >> {
  state "extCp_mgmt deleting" as step_parallel_undeploy_delete_extCp_mgmt_extCp_mgmt_deleting << set_state >>
  state "extCp_mgmt Standard.delete" as step_parallel_undeploy_delete_extCp_mgmt_extCp_mgmt_Standard.delete << call_operation >>
  state "extCp_mgmt initial" as step_parallel_undeploy_delete_extCp_mgmt_extCp_mgmt_initial << set_state >>
  step_parallel_undeploy_delete_extCp_mgmt_extCp_mgmt_deleting --> step_parallel_undeploy_delete_extCp_mgmt_extCp_mgmt_Standard.delete
  step_parallel_undeploy_delete_extCp_mgmt_extCp_mgmt_Standard.delete --> step_parallel_undeploy_delete_extCp_mgmt_extCp_mgmt_initial
}
state "stop_intVL_mgmt" as step_parallel_undeploy_stop_intVL_mgmt << step >> {
  state "intVL_mgmt stopping" as step_parallel_undeploy_stop_intVL_mgmt_intVL_mgmt_stopping << set_state >>
  state "intVL_mgmt Standard.stop" as step_parallel_undeploy_stop_intVL_mgmt_intVL_mgmt_Standard.stop << call_operation >>
  state "intVL_mgmt stopped" as step_parallel_undeploy_stop_intVL_mgmt_intVL_mgmt_stopped << set_state >>
  step_parallel_undeploy_stop_intVL_mgmt_intVL_mgmt_stopping --> step_parallel_undeploy_stop_intVL_mgmt_intVL_mgmt_Standard.stop
  step_parallel_undeploy_stop_intVL_mgmt_intVL_mgmt_Standard.stop --> step_parallel_undeploy_stop_intVL_mgmt_intVL_mgmt_stopped
}
state "delete_intVL_mgmt" as step_parallel_undeploy_delete_intVL_mgmt << step >> {
  state "intVL_mgmt deleting" as step_parallel_undeploy_delete_intVL_mgmt_intVL_mgmt_deleting << set_state >>
  state "intVL_mgmt Standard.delete" as step_parallel_undeploy_delete_intVL_mgmt_intVL_mgmt_Standard.delete << call_operation >>
  state "intVL_mgmt initial" as step_parallel_undeploy_delete_intVL_mgmt_intVL_mgmt_initial << set_state >>
  step_parallel_undeploy_delete_intVL_mgmt_intVL_mgmt_deleting --> step_parallel_undeploy_delete_intVL_mgmt_intVL_mgmt_Standard.delete
  step_parallel_undeploy_delete_intVL_mgmt_intVL_mgmt_Standard.delete --> step_parallel_undeploy_delete_intVL_mgmt_intVL_mgmt_initial
}
state "stop_intVL_data" as step_parallel_undeploy_stop_intVL_data << step >> {
  state "intVL_data stopping" as step_parallel_undeploy_stop_intVL_data_intVL_data_stopping << set_state >>
  state "intVL_data Standard.stop" as step_parallel_undeploy_stop_intVL_data_intVL_data_Standard.stop << call_operation >>
  state "intVL_data stopped" as step_parallel_undeploy_stop_intVL_data_intVL_data_stopped << set_state >>
  step_parallel_undeploy_stop_intVL_data_intVL_data_stopping --> step_parallel_undeploy_stop_intVL_data_intVL_data_Standard.stop
  step_parallel_undeploy_stop_intVL_data_intVL_data_Standard.stop --> step_parallel_undeploy_stop_intVL_data_intVL_data_stopped
}
state "delete_intVL_data" as step_parallel_undeploy_delete_intVL_data << step >> {
  state "intVL_data deleting" as step_parallel_undeploy_delete_intVL_data_intVL_data_deleting << set_state >>
  state "intVL_data Standard.delete" as step_parallel_undeploy_delete_intVL_data_intVL_data_Standard.delete << call_operation >>
  state "intVL_data initial" as step_parallel_undeploy_delete_intVL_data_intVL_data_initial << set_state >>
  step_parallel_undeploy_delete_intVL_data_intVL_data_deleting --> step_parallel_undeploy_delete_intVL_data_intVL_data_Standard.delete
  step_parallel_undeploy_delete_intVL_data_intVL_data_Standard.delete --> step_parallel_undeploy_delete_intVL_data_intVL_data_initial
}
state "stop_vdu_ids_detection" as step_parallel_undeploy_stop_vdu_ids_detection << step >> {
  state "vdu_ids_detection stopping" as step_parallel_undeploy_stop_vdu_ids_detection_vdu_ids_detection_stopping << set_state >>
  state "vdu_ids_detection Standard.stop" as step_parallel_undeploy_stop_vdu_ids_detection_vdu_ids_detection_Standard.stop << call_operation >>
  state "vdu_ids_detection stopped" as step_parallel_undeploy_stop_vdu_ids_detection_vdu_ids_detection_stopped << set_state >>
  step_parallel_undeploy_stop_vdu_ids_detection_vdu_ids_detection_stopping --> step_parallel_undeploy_stop_vdu_ids_detection_vdu_ids_detection_Standard.stop
  step_parallel_undeploy_stop_vdu_ids_detection_vdu_ids_detection_Standard.stop --> step_parallel_undeploy_stop_vdu_ids_detection_vdu_ids_detection_stopped
}
state "delete_vdu_ids_detection" as step_parallel_undeploy_delete_vdu_ids_detection << step >> {
  state "vdu_ids_detection deleting" as step_parallel_undeploy_delete_vdu_ids_detection_vdu_ids_detection_deleting << set_state >>
  state "vdu_ids_detection Standard.delete" as step_parallel_undeploy_delete_vdu_ids_detection_vdu_ids_detection_Standard.delete << call_operation >>
  state "vdu_ids_detection initial" as step_parallel_undeploy_delete_vdu_ids_detection_vdu_ids_detection_initial << set_state >>
  step_parallel_undeploy_delete_vdu_ids_detection_vdu_ids_detection_deleting --> step_parallel_undeploy_delete_vdu_ids_detection_vdu_ids_detection_Standard.delete
  step_parallel_undeploy_delete_vdu_ids_detection_vdu_ids_detection_Standard.delete --> step_parallel_undeploy_delete_vdu_ids_detection_vdu_ids_detection_initial
}
state "stop_vdu_ids_analysis" as step_parallel_undeploy_stop_vdu_ids_analysis << step >> {
  state "vdu_ids_analysis stopping" as step_parallel_undeploy_stop_vdu_ids_analysis_vdu_ids_analysis_stopping << set_state >>
  state "vdu_ids_analysis Standard.stop" as step_parallel_undeploy_stop_vdu_ids_analysis_vdu_ids_analysis_Standard.stop << call_operation >>
  state "vdu_ids_analysis stopped" as step_parallel_undeploy_stop_vdu_ids_analysis_vdu_ids_analysis_stopped << set_state >>
  step_parallel_undeploy_stop_vdu_ids_analysis_vdu_ids_analysis_stopping --> step_parallel_undeploy_stop_vdu_ids_analysis_vdu_ids_analysis_Standard.stop
  step_parallel_undeploy_stop_vdu_ids_analysis_vdu_ids_analysis_Standard.stop --> step_parallel_undeploy_stop_vdu_ids_analysis_vdu_ids_analysis_stopped
}
state "delete_vdu_ids_analysis" as step_parallel_undeploy_delete_vdu_ids_analysis << step >> {
  state "vdu_ids_analysis deleting" as step_parallel_undeploy_delete_vdu_ids_analysis_vdu_ids_analysis_deleting << set_state >>
  state "vdu_ids_analysis Standard.delete" as step_parallel_undeploy_delete_vdu_ids_analysis_vdu_ids_analysis_Standard.delete << call_operation >>
  state "vdu_ids_analysis initial" as step_parallel_undeploy_delete_vdu_ids_analysis_vdu_ids_analysis_initial << set_state >>
  step_parallel_undeploy_delete_vdu_ids_analysis_vdu_ids_analysis_deleting --> step_parallel_undeploy_delete_vdu_ids_analysis_vdu_ids_analysis_Standard.delete
  step_parallel_undeploy_delete_vdu_ids_analysis_vdu_ids_analysis_Standard.delete --> step_parallel_undeploy_delete_vdu_ids_analysis_vdu_ids_analysis_initial
}
state "stop_cp_ids_detection_mgmt" as step_parallel_undeploy_stop_cp_ids_detection_mgmt << step >> {
  state "cp_ids_detection_mgmt stopping" as step_parallel_undeploy_stop_cp_ids_detection_mgmt_cp_ids_detection_mgmt_stopping << set_state >>
  state "cp_ids_detection_mgmt Standard.stop" as step_parallel_undeploy_stop_cp_ids_detection_mgmt_cp_ids_detection_mgmt_Standard.stop << call_operation >>
  state "cp_ids_detection_mgmt stopped" as step_parallel_undeploy_stop_cp_ids_detection_mgmt_cp_ids_detection_mgmt_stopped << set_state >>
  step_parallel_undeploy_stop_cp_ids_detection_mgmt_cp_ids_detection_mgmt_stopping --> step_parallel_undeploy_stop_cp_ids_detection_mgmt_cp_ids_detection_mgmt_Standard.stop
  step_parallel_undeploy_stop_cp_ids_detection_mgmt_cp_ids_detection_mgmt_Standard.stop --> step_parallel_undeploy_stop_cp_ids_detection_mgmt_cp_ids_detection_mgmt_stopped
}
state "delete_cp_ids_detection_mgmt" as step_parallel_undeploy_delete_cp_ids_detection_mgmt << step >> {
  state "cp_ids_detection_mgmt deleting" as step_parallel_undeploy_delete_cp_ids_detection_mgmt_cp_ids_detection_mgmt_deleting << set_state >>
  state "cp_ids_detection_mgmt Standard.delete" as step_parallel_undeploy_delete_cp_ids_detection_mgmt_cp_ids_detection_mgmt_Standard.delete << call_operation >>
  state "cp_ids_detection_mgmt initial" as step_parallel_undeploy_delete_cp_ids_detection_mgmt_cp_ids_detection_mgmt_initial << set_state >>
  step_parallel_undeploy_delete_cp_ids_detection_mgmt_cp_ids_detection_mgmt_deleting --> step_parallel_undeploy_delete_cp_ids_detection_mgmt_cp_ids_detection_mgmt_Standard.delete
  step_parallel_undeploy_delete_cp_ids_detection_mgmt_cp_ids_detection_mgmt_Standard.delete --> step_parallel_undeploy_delete_cp_ids_detection_mgmt_cp_ids_detection_mgmt_initial
}
state "stop_cp_ids_detection_data" as step_parallel_undeploy_stop_cp_ids_detection_data << step >> {
  state "cp_ids_detection_data stopping" as step_parallel_undeploy_stop_cp_ids_detection_data_cp_ids_detection_data_stopping << set_state >>
  state "cp_ids_detection_data Standard.stop" as step_parallel_undeploy_stop_cp_ids_detection_data_cp_ids_detection_data_Standard.stop << call_operation >>
  state "cp_ids_detection_data stopped" as step_parallel_undeploy_stop_cp_ids_detection_data_cp_ids_detection_data_stopped << set_state >>
  step_parallel_undeploy_stop_cp_ids_detection_data_cp_ids_detection_data_stopping --> step_parallel_undeploy_stop_cp_ids_detection_data_cp_ids_detection_data_Standard.stop
  step_parallel_undeploy_stop_cp_ids_detection_data_cp_ids_detection_data_Standard.stop --> step_parallel_undeploy_stop_cp_ids_detection_data_cp_ids_detection_data_stopped
}
state "delete_cp_ids_detection_data" as step_parallel_undeploy_delete_cp_ids_detection_data << step >> {
  state "cp_ids_detection_data deleting" as step_parallel_undeploy_delete_cp_ids_detection_data_cp_ids_detection_data_deleting << set_state >>
  state "cp_ids_detection_data Standard.delete" as step_parallel_undeploy_delete_cp_ids_detection_data_cp_ids_detection_data_Standard.delete << call_operation >>
  state "cp_ids_detection_data initial" as step_parallel_undeploy_delete_cp_ids_detection_data_cp_ids_detection_data_initial << set_state >>
  step_parallel_undeploy_delete_cp_ids_detection_data_cp_ids_detection_data_deleting --> step_parallel_undeploy_delete_cp_ids_detection_data_cp_ids_detection_data_Standard.delete
  step_parallel_undeploy_delete_cp_ids_detection_data_cp_ids_detection_data_Standard.delete --> step_parallel_undeploy_delete_cp_ids_detection_data_cp_ids_detection_data_initial
}
state "stop_cp_ids_analysis_mgmt" as step_parallel_undeploy_stop_cp_ids_analysis_mgmt << step >> {
  state "cp_ids_analysis_mgmt stopping" as step_parallel_undeploy_stop_cp_ids_analysis_mgmt_cp_ids_analysis_mgmt_stopping << set_state >>
  state "cp_ids_analysis_mgmt Standard.stop" as step_parallel_undeploy_stop_cp_ids_analysis_mgmt_cp_ids_analysis_mgmt_Standard.stop << call_operation >>
  state "cp_ids_analysis_mgmt stopped" as step_parallel_undeploy_stop_cp_ids_analysis_mgmt_cp_ids_analysis_mgmt_stopped << set_state >>
  step_parallel_undeploy_stop_cp_ids_analysis_mgmt_cp_ids_analysis_mgmt_stopping --> step_parallel_undeploy_stop_cp_ids_analysis_mgmt_cp_ids_analysis_mgmt_Standard.stop
  step_parallel_undeploy_stop_cp_ids_analysis_mgmt_cp_ids_analysis_mgmt_Standard.stop --> step_parallel_undeploy_stop_cp_ids_analysis_mgmt_cp_ids_analysis_mgmt_stopped
}
state "delete_cp_ids_analysis_mgmt" as step_parallel_undeploy_delete_cp_ids_analysis_mgmt << step >> {
  state "cp_ids_analysis_mgmt deleting" as step_parallel_undeploy_delete_cp_ids_analysis_mgmt_cp_ids_analysis_mgmt_deleting << set_state >>
  state "cp_ids_analysis_mgmt Standard.delete" as step_parallel_undeploy_delete_cp_ids_analysis_mgmt_cp_ids_analysis_mgmt_Standard.delete << call_operation >>
  state "cp_ids_analysis_mgmt initial" as step_parallel_undeploy_delete_cp_ids_analysis_mgmt_cp_ids_analysis_mgmt_initial << set_state >>
  step_parallel_undeploy_delete_cp_ids_analysis_mgmt_cp_ids_analysis_mgmt_deleting --> step_parallel_undeploy_delete_cp_ids_analysis_mgmt_cp_ids_analysis_mgmt_Standard.delete
  step_parallel_undeploy_delete_cp_ids_analysis_mgmt_cp_ids_analysis_mgmt_Standard.delete --> step_parallel_undeploy_delete_cp_ids_analysis_mgmt_cp_ids_analysis_mgmt_initial
}
state "stop_cp_ids_analysis_data" as step_parallel_undeploy_stop_cp_ids_analysis_data << step >> {
  state "cp_ids_analysis_data stopping" as step_parallel_undeploy_stop_cp_ids_analysis_data_cp_ids_analysis_data_stopping << set_state >>
  state "cp_ids_analysis_data Standard.stop" as step_parallel_undeploy_stop_cp_ids_analysis_data_cp_ids_analysis_data_Standard.stop << call_operation >>
  state "cp_ids_analysis_data stopped" as step_parallel_undeploy_stop_cp_ids_analysis_data_cp_ids_analysis_data_stopped << set_state >>
  step_parallel_undeploy_stop_cp_ids_analysis_data_cp_ids_analysis_data_stopping --> step_parallel_undeploy_stop_cp_ids_analysis_data_cp_ids_analysis_data_Standard.stop
  step_parallel_undeploy_stop_cp_ids_analysis_data_cp_ids_analysis_data_Standard.stop --> step_parallel_undeploy_stop_cp_ids_analysis_data_cp_ids_analysis_data_stopped
}
state "delete_cp_ids_analysis_data" as step_parallel_undeploy_delete_cp_ids_analysis_data << step >> {
  state "cp_ids_analysis_data deleting" as step_parallel_undeploy_delete_cp_ids_analysis_data_cp_ids_analysis_data_deleting << set_state >>
  state "cp_ids_analysis_data Standard.delete" as step_parallel_undeploy_delete_cp_ids_analysis_data_cp_ids_analysis_data_Standard.delete << call_operation >>
  state "cp_ids_analysis_data initial" as step_parallel_undeploy_delete_cp_ids_analysis_data_cp_ids_analysis_data_initial << set_state >>
  step_parallel_undeploy_delete_cp_ids_analysis_data_cp_ids_analysis_data_deleting --> step_parallel_undeploy_delete_cp_ids_analysis_data_cp_ids_analysis_data_Standard.delete
  step_parallel_undeploy_delete_cp_ids_analysis_data_cp_ids_analysis_data_Standard.delete --> step_parallel_undeploy_delete_cp_ids_analysis_data_cp_ids_analysis_data_initial
}
  state step_parallel_undeploy_stop_intVL_mgmt_join <<join>>
  step_parallel_undeploy_stop_intVL_mgmt_join --> step_parallel_undeploy_stop_intVL_mgmt
  state step_parallel_undeploy_stop_intVL_data_join <<join>>
  step_parallel_undeploy_stop_intVL_data_join --> step_parallel_undeploy_stop_intVL_data
  state step_parallel_undeploy_stop_vdu_ids_detection_join <<join>>
  step_parallel_undeploy_stop_vdu_ids_detection_join --> step_parallel_undeploy_stop_vdu_ids_detection
  state step_parallel_undeploy_stop_vdu_ids_analysis_join <<join>>
  step_parallel_undeploy_stop_vdu_ids_analysis_join --> step_parallel_undeploy_stop_vdu_ids_analysis
step_parallel_undeploy_stop_extCp_mgmt --> step_parallel_undeploy_delete_extCp_mgmt
step_parallel_undeploy_stop_intVL_mgmt --> step_parallel_undeploy_delete_intVL_mgmt
step_parallel_undeploy_stop_intVL_data --> step_parallel_undeploy_delete_intVL_data
step_parallel_undeploy_stop_vdu_ids_detection --> step_parallel_undeploy_delete_vdu_ids_detection
step_parallel_undeploy_stop_vdu_ids_analysis --> step_parallel_undeploy_delete_vdu_ids_analysis
step_parallel_undeploy_stop_cp_ids_detection_mgmt --> step_parallel_undeploy_delete_cp_ids_detection_mgmt
state step_parallel_undeploy_delete_cp_ids_detection_mgmt_fork <<fork>>
step_parallel_undeploy_delete_cp_ids_detection_mgmt --> step_parallel_undeploy_delete_cp_ids_detection_mgmt_fork
step_parallel_undeploy_delete_cp_ids_detection_mgmt_fork --> step_parallel_undeploy_stop_vdu_ids_detection_join
step_parallel_undeploy_delete_cp_ids_detection_mgmt_fork --> step_parallel_undeploy_stop_intVL_mgmt_join
step_parallel_undeploy_stop_cp_ids_detection_data --> step_parallel_undeploy_delete_cp_ids_detection_data
state step_parallel_undeploy_delete_cp_ids_detection_data_fork <<fork>>
step_parallel_undeploy_delete_cp_ids_detection_data --> step_parallel_undeploy_delete_cp_ids_detection_data_fork
step_parallel_undeploy_delete_cp_ids_detection_data_fork --> step_parallel_undeploy_stop_vdu_ids_detection_join
step_parallel_undeploy_delete_cp_ids_detection_data_fork --> step_parallel_undeploy_stop_intVL_data_join
step_parallel_undeploy_stop_cp_ids_analysis_mgmt --> step_parallel_undeploy_delete_cp_ids_analysis_mgmt
state step_parallel_undeploy_delete_cp_ids_analysis_mgmt_fork <<fork>>
step_parallel_undeploy_delete_cp_ids_analysis_mgmt --> step_parallel_undeploy_delete_cp_ids_analysis_mgmt_fork
step_parallel_undeploy_delete_cp_ids_analysis_mgmt_fork --> step_parallel_undeploy_stop_vdu_ids_analysis_join
step_parallel_undeploy_delete_cp_ids_analysis_mgmt_fork --> step_parallel_undeploy_stop_intVL_mgmt_join
step_parallel_undeploy_stop_cp_ids_analysis_data --> step_parallel_undeploy_delete_cp_ids_analysis_data
state step_parallel_undeploy_delete_cp_ids_analysis_data_fork <<fork>>
step_parallel_undeploy_delete_cp_ids_analysis_data --> step_parallel_undeploy_delete_cp_ids_analysis_data_fork
step_parallel_undeploy_delete_cp_ids_analysis_data_fork --> step_parallel_undeploy_stop_vdu_ids_analysis_join
step_parallel_undeploy_delete_cp_ids_analysis_data_fork --> step_parallel_undeploy_stop_intVL_data_join
state parallel_undeploy_fork <<fork>>
[*] --> parallel_undeploy_fork
parallel_undeploy_fork --> step_parallel_undeploy_stop_extCp_mgmt
parallel_undeploy_fork --> step_parallel_undeploy_stop_cp_ids_detection_mgmt
parallel_undeploy_fork --> step_parallel_undeploy_stop_cp_ids_detection_data
parallel_undeploy_fork --> step_parallel_undeploy_stop_cp_ids_analysis_mgmt
parallel_undeploy_fork --> step_parallel_undeploy_stop_cp_ids_analysis_data
state parallel_undeploy_join <<join>>
parallel_undeploy_join --> [*]
step_parallel_undeploy_delete_extCp_mgmt --> parallel_undeploy_join
step_parallel_undeploy_delete_intVL_mgmt --> parallel_undeploy_join
step_parallel_undeploy_delete_intVL_data --> parallel_undeploy_join
step_parallel_undeploy_delete_vdu_ids_detection --> parallel_undeploy_join
step_parallel_undeploy_delete_vdu_ids_analysis --> parallel_undeploy_join
@enduml
